<?xml version="1.0" encoding="utf-8"?>
<!-- Generator: Adobe Illustrator 16.0.0, SVG Export Plug-In . SVG Version: 6.00 Build 0)  -->
<!DOCTYPE svg PUBLIC "-//W3C//DTD SVG 1.1//EN" "http://www.w3.org/Graphics/SVG/1.1/DTD/svg11.dtd">
<svg version="1.1" id="Layer_1" xmlns="http://www.w3.org/2000/svg" xmlns:xlink="http://www.w3.org/1999/xlink" x="0px" y="0px"
	 width="512px" height="512px" viewBox="0 0 512 512" enable-background="new 0 0 512 512" xml:space="preserve">
<path d="M336,272c0,44.188-35.813,80-80,80s-80-35.813-80-80s35.813-80,80-80S336,227.813,336,272z M512,144v256
	c0,17.688-14.313,32-32,32H32c-17.688,0-32-14.313-32-32V144c0-17.688,14.313-32,32-32h32c0-17.688,14.328-32,32-32h32
	c17.672,0,32,14.313,32,32h320C497.688,112,512,126.313,512,144z M368,272c0-61.75-50.25-112-112-112s-112,50.25-112,112
	s50.25,112,112,112S368,333.75,368,272z M448,144h-64v32h64V144z"/>
</svg>
